<mxfile host="app.diagrams.net" modified="2024-04-17T17:19:06.203Z" agent="Mozilla/5.0 (X11; Linux x86_64) AppleWebKit/537.36 (KHTML, like Gecko) Chrome/123.0.0.0 Safari/537.36" etag="LqMG1bUMfxxXRaEfkjn4" version="24.2.5" type="device">
  <diagram name="Página-1" id="JEaS9K3M2zUAlHg1lE_-">
    <mxGraphModel dx="1590" dy="1070" grid="0" gridSize="10" guides="1" tooltips="1" connect="1" arrows="1" fold="1" page="0" pageScale="1" pageWidth="827" pageHeight="1169" math="0" shadow="0">
      <root>
        <mxCell id="0" />
        <mxCell id="1" parent="0" />
        <mxCell id="Xy8fWTTqxwlZziDmZR1W-1" value="" style="whiteSpace=wrap;html=1;aspect=fixed;" parent="1" vertex="1">
          <mxGeometry x="-101" y="-212" width="602" height="602" as="geometry" />
        </mxCell>
        <mxCell id="Xy8fWTTqxwlZziDmZR1W-2" value="TÍTULO" style="rounded=0;whiteSpace=wrap;html=1;" parent="1" vertex="1">
          <mxGeometry x="-101" y="-212" width="602" height="202" as="geometry" />
        </mxCell>
        <mxCell id="Xy8fWTTqxwlZziDmZR1W-3" value="HOME" style="rounded=0;whiteSpace=wrap;html=1;" parent="1" vertex="1">
          <mxGeometry x="-101" y="-10" width="602" height="60" as="geometry" />
        </mxCell>
        <mxCell id="Xy8fWTTqxwlZziDmZR1W-4" value="MAIN" style="rounded=0;whiteSpace=wrap;html=1;" parent="1" vertex="1">
          <mxGeometry x="-101" y="50" width="602" height="298" as="geometry" />
        </mxCell>
        <mxCell id="Xy8fWTTqxwlZziDmZR1W-5" value="FOOT" style="rounded=0;whiteSpace=wrap;html=1;" parent="1" vertex="1">
          <mxGeometry x="-101" y="348" width="602" height="42" as="geometry" />
        </mxCell>
        <mxCell id="Xy8fWTTqxwlZziDmZR1W-6" value="" style="whiteSpace=wrap;html=1;aspect=fixed;" parent="1" vertex="1">
          <mxGeometry x="-101" y="509" width="602" height="602" as="geometry" />
        </mxCell>
        <mxCell id="Xy8fWTTqxwlZziDmZR1W-7" value="" style="rounded=0;whiteSpace=wrap;html=1;fillColor=#f8cecc;strokeColor=#b85450;" parent="1" vertex="1">
          <mxGeometry x="-101" y="509" width="602" height="202" as="geometry" />
        </mxCell>
        <mxCell id="Xy8fWTTqxwlZziDmZR1W-8" value="HOME" style="rounded=0;whiteSpace=wrap;html=1;fillColor=#fff2cc;strokeColor=#d6b656;" parent="1" vertex="1">
          <mxGeometry x="-101" y="711" width="602" height="60" as="geometry" />
        </mxCell>
        <mxCell id="Xy8fWTTqxwlZziDmZR1W-9" value="" style="rounded=0;whiteSpace=wrap;html=1;fillColor=#f8cecc;strokeColor=#b85450;" parent="1" vertex="1">
          <mxGeometry x="-101" y="771" width="602" height="298" as="geometry" />
        </mxCell>
        <mxCell id="Xy8fWTTqxwlZziDmZR1W-10" value="" style="rounded=0;whiteSpace=wrap;html=1;fillColor=#ffe6cc;strokeColor=#d79b00;" parent="1" vertex="1">
          <mxGeometry x="-101" y="1069" width="602" height="42" as="geometry" />
        </mxCell>
        <mxCell id="Xy8fWTTqxwlZziDmZR1W-11" value="FOTO" style="ellipse;whiteSpace=wrap;html=1;aspect=fixed;" parent="1" vertex="1">
          <mxGeometry x="-44" y="546.5" width="127" height="127" as="geometry" />
        </mxCell>
        <mxCell id="Xy8fWTTqxwlZziDmZR1W-12" value="&#xa;&lt;span style=&quot;color: rgb(0, 0, 0); font-family: Helvetica; font-size: 12px; font-style: normal; font-variant-ligatures: normal; font-variant-caps: normal; font-weight: 400; letter-spacing: normal; orphans: 2; text-align: center; text-indent: 0px; text-transform: none; widows: 2; word-spacing: 0px; -webkit-text-stroke-width: 0px; white-space: normal; background-color: rgb(255, 255, 255); text-decoration-thickness: initial; text-decoration-style: initial; text-decoration-color: initial; display: inline !important; float: none;&quot;&gt;DAPHNE ROCHA AMIGO&lt;/span&gt;&#xa;&#xa;" style="rounded=0;whiteSpace=wrap;html=1;" parent="1" vertex="1">
          <mxGeometry x="160" y="565.5" width="281" height="89" as="geometry" />
        </mxCell>
        <mxCell id="Xy8fWTTqxwlZziDmZR1W-13" value="HOME" style="rounded=0;whiteSpace=wrap;html=1;" parent="1" vertex="1">
          <mxGeometry x="-40.5" y="711" width="120" height="60" as="geometry" />
        </mxCell>
        <mxCell id="Xy8fWTTqxwlZziDmZR1W-14" value="SEÇÕES" style="rounded=0;whiteSpace=wrap;html=1;" parent="1" vertex="1">
          <mxGeometry x="140" y="711" width="120" height="60" as="geometry" />
        </mxCell>
        <mxCell id="Xy8fWTTqxwlZziDmZR1W-15" value="CONTATOS" style="rounded=0;whiteSpace=wrap;html=1;" parent="1" vertex="1">
          <mxGeometry x="321" y="711" width="120" height="60" as="geometry" />
        </mxCell>
        <mxCell id="Xy8fWTTqxwlZziDmZR1W-16" value="IMAGEM" style="rounded=0;whiteSpace=wrap;html=1;" parent="1" vertex="1">
          <mxGeometry x="-63" y="808" width="259" height="239" as="geometry" />
        </mxCell>
        <mxCell id="Xy8fWTTqxwlZziDmZR1W-17" value="TEXTO" style="rounded=0;whiteSpace=wrap;html=1;" parent="1" vertex="1">
          <mxGeometry x="241" y="808" width="231" height="239" as="geometry" />
        </mxCell>
        <mxCell id="Xy8fWTTqxwlZziDmZR1W-18" value="" style="ellipse;whiteSpace=wrap;html=1;aspect=fixed;" parent="1" vertex="1">
          <mxGeometry x="109" y="1073" width="34" height="34" as="geometry" />
        </mxCell>
        <mxCell id="Xy8fWTTqxwlZziDmZR1W-19" value="" style="ellipse;whiteSpace=wrap;html=1;aspect=fixed;" parent="1" vertex="1">
          <mxGeometry x="192" y="1073" width="34" height="34" as="geometry" />
        </mxCell>
        <mxCell id="Xy8fWTTqxwlZziDmZR1W-20" value="" style="ellipse;whiteSpace=wrap;html=1;aspect=fixed;" parent="1" vertex="1">
          <mxGeometry x="280" y="1073" width="34" height="34" as="geometry" />
        </mxCell>
        <mxCell id="Xy8fWTTqxwlZziDmZR1W-38" value="" style="whiteSpace=wrap;html=1;aspect=fixed;" parent="1" vertex="1">
          <mxGeometry x="-104.5" y="1206" width="609" height="609" as="geometry" />
        </mxCell>
        <mxCell id="Xy8fWTTqxwlZziDmZR1W-39" value="" style="rounded=0;whiteSpace=wrap;html=1;fillColor=#f8cecc;strokeColor=#b85450;" parent="1" vertex="1">
          <mxGeometry x="-105" y="1206" width="270" height="609" as="geometry" />
        </mxCell>
        <mxCell id="Xy8fWTTqxwlZziDmZR1W-40" value="" style="ellipse;whiteSpace=wrap;html=1;aspect=fixed;" parent="1" vertex="1">
          <mxGeometry x="-47.5" y="1231" width="163" height="163" as="geometry" />
        </mxCell>
        <mxCell id="Xy8fWTTqxwlZziDmZR1W-41" value="DAPHNE ROCHA AMIGO" style="rounded=0;whiteSpace=wrap;html=1;" parent="1" vertex="1">
          <mxGeometry x="-75" y="1416" width="218" height="60" as="geometry" />
        </mxCell>
        <mxCell id="Xy8fWTTqxwlZziDmZR1W-42" value="HOME" style="rounded=0;whiteSpace=wrap;html=1;" parent="1" vertex="1">
          <mxGeometry x="-30" y="1516" width="120" height="60" as="geometry" />
        </mxCell>
        <mxCell id="Xy8fWTTqxwlZziDmZR1W-43" value="SEÇÕES" style="rounded=0;whiteSpace=wrap;html=1;" parent="1" vertex="1">
          <mxGeometry x="-30" y="1593" width="120" height="60" as="geometry" />
        </mxCell>
        <mxCell id="Xy8fWTTqxwlZziDmZR1W-44" value="CONTATOS" style="rounded=0;whiteSpace=wrap;html=1;" parent="1" vertex="1">
          <mxGeometry x="-30" y="1672" width="120" height="60" as="geometry" />
        </mxCell>
        <mxCell id="Xy8fWTTqxwlZziDmZR1W-45" value="IMAGEM" style="rounded=0;whiteSpace=wrap;html=1;" parent="1" vertex="1">
          <mxGeometry x="195" y="1237" width="280" height="278" as="geometry" />
        </mxCell>
        <mxCell id="Xy8fWTTqxwlZziDmZR1W-47" value="TEXTO" style="rounded=0;whiteSpace=wrap;html=1;" parent="1" vertex="1">
          <mxGeometry x="192" y="1550" width="286" height="247" as="geometry" />
        </mxCell>
        <mxCell id="Xy8fWTTqxwlZziDmZR1W-49" value="" style="rounded=0;whiteSpace=wrap;html=1;fillColor=#ffe6cc;strokeColor=#d79b00;" parent="1" vertex="1">
          <mxGeometry x="-105" y="1767" width="270" height="48" as="geometry" />
        </mxCell>
        <mxCell id="Xy8fWTTqxwlZziDmZR1W-50" value="" style="ellipse;whiteSpace=wrap;html=1;aspect=fixed;" parent="1" vertex="1">
          <mxGeometry x="-55" y="1771" width="40" height="40" as="geometry" />
        </mxCell>
        <mxCell id="Xy8fWTTqxwlZziDmZR1W-51" value="" style="ellipse;whiteSpace=wrap;html=1;aspect=fixed;" parent="1" vertex="1">
          <mxGeometry x="5" y="1771" width="40" height="40" as="geometry" />
        </mxCell>
        <mxCell id="Xy8fWTTqxwlZziDmZR1W-52" value="" style="ellipse;whiteSpace=wrap;html=1;aspect=fixed;" parent="1" vertex="1">
          <mxGeometry x="65" y="1771" width="40" height="40" as="geometry" />
        </mxCell>
        <mxCell id="Xy8fWTTqxwlZziDmZR1W-53" value="&lt;b data-sider-select-id=&quot;f2cf1f24-72e4-4aec-b4b3-c6747a045524&quot;&gt;WIREFRAME&lt;/b&gt;" style="text;strokeColor=none;fillColor=none;html=1;align=center;verticalAlign=middle;whiteSpace=wrap;rounded=0;fontSize=16;" parent="1" vertex="1">
          <mxGeometry x="170" y="-271" width="60" height="30" as="geometry" />
        </mxCell>
        <mxCell id="-EBnLxCmJhG-6BThUs9q-1" value="" style="verticalLabelPosition=bottom;verticalAlign=top;html=1;shape=mxgraph.basic.no_symbol;fillColor=#d80073;strokeColor=#A50040;fontColor=#ffffff;" vertex="1" parent="1">
          <mxGeometry x="394" y="-65" width="266" height="254" as="geometry" />
        </mxCell>
        <mxCell id="-EBnLxCmJhG-6BThUs9q-2" value="&lt;font data-sider-select-id=&quot;f1f667d5-07ab-477f-8c94-ce7e08dfc3bb&quot; style=&quot;font-size: 18px;&quot;&gt;Protótipo&lt;/font&gt;" style="text;html=1;align=center;verticalAlign=middle;whiteSpace=wrap;rounded=0;fillColor=none;" vertex="1" parent="1">
          <mxGeometry x="492.5" y="47" width="69" height="30" as="geometry" />
        </mxCell>
      </root>
    </mxGraphModel>
  </diagram>
</mxfile>
